<svg id="prefix__Layer_2" data-name="Layer 2" xmlns="http://www.w3.org/2000/svg" viewBox="0 0 51 51"><defs><style>.prefix__cls-1{fill:none;stroke:#fff;stroke-miterlimit:10;stroke-width:3px}</style></defs><g id="prefix__Layer_1-2" data-name="Layer 1"><rect class="prefix__cls-1" x="1.5" y="17.5" width="16" height="16" rx="2.5" ry="2.5"/><rect class="prefix__cls-1" x="17.5" y="33.5" width="16" height="16" rx="2.5" ry="2.5"/><path class="prefix__cls-1" d="M33.5 15V4c0-1.4-1.1-2.5-2.5-2.5H20A2.5 2.5 0 0 0 17.5 4v12.5q0 1 .7 1.7l14.6 14.6q.6.7 1.7.7H47c1.4 0 2.5-1.1 2.5-2.5V20c0-1.4-1.1-2.5-2.5-2.5H36a2.5 2.5 0 0 1-2.5-2.5Z"/></g></svg>